<svg width="456" height="456" viewBox="0 0 456 456" xmlns="http://www.w3.org/2000/svg">
  <g transform="translate(228,228)">
    <path d="M-20,-120 C-70,-120 -105,-85 -105,-45 C-125,-35 -135,-10 -128,12 C-138,35 -128,65 -105,75 C-100,110 -65,130 -30,122 L-30,-40 C-30,-52 -22,-60 -10,-60 L-10,-108 C-10,-115 -14,-120 -20,-120 Z" fill="#FFFFFF" opacity="0.96"/>
    <path d="M20,-120 C70,-120 105,-85 105,-45 C125,-35 135,-10 128,12 C138,35 128,65 105,75 C100,110 65,130 30,122 L30,-40 C30,-52 22,-60 10,-60 L10,-108 C10,-115 14,-120 20,-120 Z" fill="#FFFFFF" opacity="0.82"/>
    <path d="M8,-50 L-26,18 L-4,18 L-12,72 L30,-2 L6,-2 L20,-50 Z" fill="#FFB300"/>
  </g>
</svg>
